<svg id="icon-USA" xmlns="http://www.w3.org/2000/svg" xmlns:xlink="http://www.w3.org/1999/xlink" width="44" height="44" viewBox="0 0 44 44">
  <defs>
    <clipPath id="clip-path">
      <path id="path3515" d="M-1512.915-185.823a21.972,21.972,0,0,1-22,21.949,21.972,21.972,0,0,1-22-21.949,21.972,21.972,0,0,1,22-21.949A21.972,21.972,0,0,1-1512.915-185.823Z" transform="translate(1556.905 207.772)"/>
    </clipPath>
    <clipPath id="clip-path-2">
      <path id="path3605" d="M-1512.736-185.8a21.97,21.97,0,0,1-21.993,21.947,21.97,21.97,0,0,1-21.993-21.947,21.97,21.97,0,0,1,21.993-21.947A21.97,21.97,0,0,1-1512.736-185.8Z" transform="translate(1556.722 207.748)"/>
    </clipPath>
  </defs>
  <g id="g3721">
    <g id="g3239" transform="translate(0 0.102)" clip-path="url(#clip-path)">
      <path id="path18829" d="M-1860,982.534h65.965v-3.378H-1860Z" transform="translate(1849.057 -948.772)" fill="#fff"/>
      <path id="path18831" d="M-1860,945.606h65.965V942.23H-1860Z" transform="translate(1849.057 -915.222)" fill="#ca4638"/>
      <path id="path18833" d="M-1860,1056.372h65.965V1053H-1860Z" transform="translate(1849.057 -1015.86)" fill="#fff"/>
      <path id="path18835" d="M-1860,1093.3h65.965v-3.377H-1860Z" transform="translate(1849.057 -1049.41)" fill="#ca4638"/>
      <path id="path18837" d="M-1860,1019.47h65.965V1016.1H-1860Z" transform="translate(1849.057 -982.335)" fill="#ca4638"/>
      <path id="path18839" d="M-1860,906.964h65.965v-3.374H-1860Z" transform="translate(1849.057 -880.115)" fill="#fff"/>
      <path id="path18841" d="M-1860,797.944h65.965V794.57H-1860Z" transform="translate(1849.057 -781.063)" fill="#ca4638"/>
      <path id="path18843" d="M-1860,687.144h65.965v-3.377H-1860Z" transform="translate(1849.057 -680.39)" fill="#fff"/>
      <g id="Group_41" data-name="Group 41" transform="translate(-10.944 0.007)">
        <path id="path18845" d="M-1860,724.079h65.965V720.7H-1860Z" transform="translate(1860.001 -713.956)" fill="#ca4638"/>
        <path id="path18847" d="M-1860,871.747h65.965v-3.38H-1860Z" transform="translate(1860.001 -848.119)" fill="#ca4638"/>
        <path id="path18849" d="M-1860,650.279h65.965v-3.37H-1860Z" transform="translate(1860.001 -646.909)" fill="#ca4638"/>
      </g>
      <path id="path18851" d="M-1860,761.007h65.965V757.63H-1860Z" transform="translate(1849.057 -747.5)" fill="#fff"/>
      <path id="path18853" d="M-1860,834.841h65.965v-3.374H-1860Z" transform="translate(1849.057 -814.587)" fill="#fff"/>
    </g>
    <g id="Group_42" data-name="Group 42" transform="translate(0.014 0)" clip-path="url(#clip-path-2)">
      <path id="path3517" d="M-674.972,200.875h21.99V177.121h-21.99Z" transform="translate(674.992 -177.118)" fill="#356ba0"/>
    </g>
    <g id="Group_43" data-name="Group 43" transform="translate(0.358 1.088)">
      <path id="path18857" d="M-498.364,211.873l.156.484h.509l-.412.3.159.484-.412-.3-.415.3.159-.484-.412-.3h.509l.159-.484" transform="translate(513.992 -209.939)" fill="#fff"/>
      <path id="path18859" d="M-498.364,260.85l.156.484h.509l-.412.3.159.484-.412-.3-.415.3.159-.484-.412-.3h.509l.159-.484" transform="translate(513.992 -254.661)" fill="#fff"/>
      <path id="path18861" d="M-498.364,309.853l.156.485h.509l-.412.3.159.485-.412-.3-.415.3.159-.485-.412-.3h.509l.159-.485" transform="translate(513.992 -299.407)" fill="#fff"/>
      <path id="path18863" d="M-498.364,359.942l.156.488h.509l-.412.3.159.488-.412-.3-.415.3.159-.488-.412-.3h.509l.159-.488" transform="translate(513.992 -345.144)" fill="#fff"/>
      <path id="path18865" d="M-498.364,407.8l.156.485h.509l-.412.3.159.484-.412-.3-.415.3.159-.484-.412-.3h.509l.159-.485" transform="translate(513.992 -388.848)" fill="#fff"/>
      <path id="path18867" d="M-542.306,211.873l.157.484h.511l-.413.3.157.484-.412-.3-.413.3.157-.484-.412-.3h.511l.157-.484" transform="translate(554.117 -209.939)" fill="#fff"/>
      <path id="path18869" d="M-542.306,260.85l.157.484h.511l-.413.3.157.484-.412-.3-.413.3.157-.484-.412-.3h.511l.157-.484" transform="translate(554.117 -254.661)" fill="#fff"/>
      <path id="path18871" d="M-542.306,309.853l.157.485h.511l-.413.3.157.485-.412-.3-.413.3.157-.485-.412-.3h.511l.157-.485" transform="translate(554.117 -299.407)" fill="#fff"/>
      <path id="path18873" d="M-542.306,359.942l.157.488h.511l-.413.3.157.488-.412-.3-.413.3.157-.488-.412-.3h.511l.157-.488" transform="translate(554.117 -345.144)" fill="#fff"/>
      <path id="path18875" d="M-542.306,407.8l.157.485h.511l-.413.3.157.484-.412-.3-.413.3.157-.484-.412-.3h.511l.157-.485" transform="translate(554.117 -388.848)" fill="#fff"/>
      <path id="path18879" d="M-586.209,260.85l.156.484h.509l-.412.3.159.484-.412-.3-.415.3.159-.484-.412-.3h.508l.16-.484" transform="translate(594.205 -254.661)" fill="#fff"/>
      <path id="path18881" d="M-586.209,309.853l.156.485h.509l-.412.3.159.485-.412-.3-.415.3.159-.485-.412-.3h.508l.16-.485" transform="translate(594.205 -299.407)" fill="#fff"/>
      <path id="path18883" d="M-586.209,359.942l.156.488h.509l-.412.3.159.488-.412-.3-.415.3.159-.488-.412-.3h.508l.16-.488" transform="translate(594.205 -345.144)" fill="#fff"/>
      <path id="path18885" d="M-586.209,407.8l.156.485h.509l-.412.3.159.484-.412-.3-.415.3.159-.484-.412-.3h.508l.16-.485" transform="translate(594.205 -388.848)" fill="#fff"/>
      <path id="path18891" d="M-630.158,309.853l.157.485h.511l-.412.3.157.485-.413-.3-.412.3.157-.485-.413-.3h.509l.159-.485" transform="translate(634.336 -299.407)" fill="#fff"/>
      <path id="path18893" d="M-630.158,359.942l.157.488h.511l-.412.3.157.488-.413-.3-.412.3.157-.488-.413-.3h.509l.159-.488" transform="translate(634.336 -345.144)" fill="#fff"/>
      <path id="path18895" d="M-630.158,407.8l.157.485h.511l-.412.3.157.484-.413-.3-.412.3.157-.484-.413-.3h.509l.159-.485" transform="translate(634.336 -388.848)" fill="#fff"/>
      <path id="path18907" d="M-475.977,236.335l.157.488h.511l-.413.3.157.488-.412-.3-.413.3.158-.488-.413-.3h.51l.158-.488" transform="translate(493.55 -232.276)" fill="#fff"/>
      <path id="path18909" d="M-475.977,286.926l.157.485h.511l-.413.3.157.484-.412-.3-.413.3.158-.484-.413-.3h.51l.158-.485" transform="translate(493.55 -278.472)" fill="#fff"/>
      <path id="path18911" d="M-476.426,336.494l.158.484h.51l-.412.3.157.484-.413-.3-.412.3.157-.484-.413-.3h.511l.157-.484" transform="translate(493.96 -323.733)" fill="#fff"/>
      <path id="path18913" d="M-476.865,385.468l.158.484h.511l-.414.3.159.484-.414-.3-.411.3.157-.484-.414-.3h.511l.157-.484" transform="translate(494.361 -368.452)" fill="#fff"/>
      <path id="path18915" d="M-519.9,236.335l.158.488h.511l-.414.3.159.488-.414-.3-.413.3.159-.488-.412-.3h.509l.157-.488" transform="translate(533.652 -232.276)" fill="#fff"/>
      <path id="path18917" d="M-519.9,286.926l.158.485h.511l-.414.3.159.484-.414-.3-.413.3.159-.484-.412-.3h.509l.157-.485" transform="translate(533.652 -278.472)" fill="#fff"/>
      <path id="path18919" d="M-520.342,336.494l.157.484h.511l-.412.3.157.484-.413-.3-.412.3.157-.484-.413-.3h.509l.159-.484" transform="translate(534.06 -323.733)" fill="#fff"/>
      <path id="path18921" d="M-520.776,385.468l.157.484h.51l-.412.3.157.484-.412-.3-.413.3.157-.484-.412-.3h.51l.158-.484" transform="translate(534.457 -368.452)" fill="#fff"/>
      <path id="path18923" d="M-563.831,234.606l.158.484h.51l-.412.3.158.484-.414-.3-.412.3.158-.484-.413-.3h.51l.157-.484" transform="translate(573.771 -230.697)" fill="#fff"/>
      <path id="path18925" d="M-563.831,285.158l.158.484h.51l-.412.3.158.482-.414-.3-.412.3.158-.482-.413-.3h.51l.157-.484" transform="translate(573.771 -276.857)" fill="#fff"/>
      <path id="path18927" d="M-564.27,334.726l.156.484h.511l-.413.3.158.484-.412-.3-.414.3.158-.484-.412-.3h.51l.158-.484" transform="translate(574.172 -322.118)" fill="#fff"/>
      <path id="path18929" d="M-564.716,383.726l.158.485h.51l-.412.3.157.488-.413-.3-.412.3.157-.488-.413-.3h.51l.158-.485" transform="translate(574.58 -366.862)" fill="#fff"/>
      <path id="path18933" d="M-607.75,284.659l.157.484h.51l-.413.3.157.484-.411-.3-.414.3.159-.484-.413-.3h.51l.158-.484" transform="translate(613.876 -276.402)" fill="#fff"/>
      <path id="path18935" d="M-608.181,334.224l.156.485h.511l-.413.3.158.484-.412-.3-.413.3.157-.484-.412-.3h.509l.159-.485" transform="translate(614.269 -321.66)" fill="#fff"/>
      <path id="path18937" d="M-608.634,383.2l.158.485h.51l-.413.3.157.484-.412-.3-.412.3.157-.484-.413-.3h.51l.158-.485" transform="translate(614.682 -366.382)" fill="#fff"/>
      <path id="path18943" d="M-652.134,333.377l.158.484h.51l-.413.3.158.484-.413-.3-.412.3.157-.484-.413-.3h.511l.157-.484" transform="translate(654.403 -320.887)" fill="#fff"/>
      <path id="path18945" d="M-652.557,382.354l.156.484h.511l-.413.3.158.484-.412-.3-.414.3.158-.484-.412-.3h.51l.158-.484" transform="translate(654.789 -365.609)" fill="#fff"/>
      <path id="path18947" d="M-454.453,211.873l.156.484h.511l-.412.3.157.484-.412-.3-.413.3.157-.484-.412-.3h.51l.158-.484" transform="translate(473.896 -209.939)" fill="#fff"/>
      <path id="path18949" d="M-454.453,260.85l.156.484h.511l-.412.3.157.484-.412-.3-.413.3.157-.484-.412-.3h.51l.158-.484" transform="translate(473.896 -254.661)" fill="#fff"/>
      <path id="path18951" d="M-454.453,309.853l.156.485h.511l-.412.3.157.485-.412-.3-.413.3.157-.485-.412-.3h.51l.158-.485" transform="translate(473.896 -299.407)" fill="#fff"/>
      <path id="path18953" d="M-454.453,359.942l.156.488h.511l-.412.3.157.488-.412-.3-.413.3.157-.488-.412-.3h.51l.158-.488" transform="translate(473.896 -345.144)" fill="#fff"/>
      <path id="path18955" d="M-454.453,407.8l.156.485h.511l-.412.3.157.484-.412-.3-.413.3.157-.484-.412-.3h.51l.158-.485" transform="translate(473.896 -388.848)" fill="#fff"/>
      <path id="path3711" d="M-475.977,189.611l.157.485h.511l-.412.3.157.484-.413-.3-.412.3.157-.484-.413-.3h.509l.159-.485" transform="translate(493.55 -189.611)" fill="#fff"/>
      <path id="path3713" d="M-670.564,407.8l.157.485h.511l-.412.3.157.484-.413-.3-.412.3.157-.484-.413-.3h.509l.159-.485" transform="translate(671.232 -388.848)" fill="#fff"/>
      <path id="path3715" d="M-666.524,359.942l.157.488h.511l-.412.3.157.488-.413-.3-.412.3.157-.488-.413-.3h.509l.159-.488" transform="translate(667.543 -345.144)" fill="#fff"/>
      <path id="path3719" d="M-519.9,193.908l.158.488h.511l-.414.3.159.488-.414-.3-.413.3.159-.488-.412-.3h.509l.157-.488" transform="translate(533.652 -193.535)" fill="#fff"/>
    </g>
  </g>
</svg>
