<svg id="icon-socials-tiktok" xmlns="http://www.w3.org/2000/svg" width="30.75" height="35" viewBox="0 0 30.75 35">
  <path id="Path_42" data-name="Path 42" d="M62.156,9.154a8.819,8.819,0,0,1-5.329-1.781,8.839,8.839,0,0,1-3.353-5.329A8.885,8.885,0,0,1,53.305.39H47.591V16.005l-.007,8.553a5.181,5.181,0,1,1-3.553-4.908v-5.8a11.245,11.245,0,0,0-1.648-.122,10.958,10.958,0,0,0-8.234,3.683,10.739,10.739,0,0,0,.485,14.808,11.147,11.147,0,0,0,1.032.9,10.959,10.959,0,0,0,6.717,2.271,11.246,11.246,0,0,0,1.648-.121,10.922,10.922,0,0,0,6.1-3.051,10.7,10.7,0,0,0,3.21-7.614L53.312,11.83a14.481,14.481,0,0,0,8.861,3.011V9.152s-.015,0-.016,0Z" transform="translate(-31.423 -0.39)" fill="#fff"/>
</svg>
