<svg id="icon-diamond-VIP-black" xmlns="http://www.w3.org/2000/svg" width="55.386" height="48" viewBox="0 0 55.386 48">
  <g id="Group_48" data-name="Group 48" transform="translate(0 0.001)">
    <g id="Group_47" data-name="Group 47" transform="translate(0 0)">
      <path id="Path_32" data-name="Path 32" d="M55.17,45.554,45.94,34.477a.925.925,0,0,0-.709-.331H10.154a.922.922,0,0,0-.709.331L.214,45.554a.923.923,0,0,0,.709,1.514H54.461a.923.923,0,0,0,.709-1.514ZM2.894,45.222l7.692-9.231H44.8l7.692,9.231Z" transform="translate(0.001 -34.146)" fill="#170c10"/>
    </g>
  </g>
  <g id="Group_50" data-name="Group 50" transform="translate(9.232)">
    <g id="Group_49" data-name="Group 49" transform="translate(0 0)">
      <path id="Path_33" data-name="Path 33" d="M104.658,34.707a.923.923,0,0,0-.853-.57H86.266a.923.923,0,0,0-.8,1.388L91.93,46.6a.924.924,0,0,0,.678.45,1.02,1.02,0,0,0,.118.007.924.924,0,0,0,.654-.27l11.077-11.077A.923.923,0,0,0,104.658,34.707ZM92.921,44.638l-5.048-8.655h13.7Z" transform="translate(-85.343 -34.137)" fill="#170c10"/>
    </g>
  </g>
  <g id="Group_52" data-name="Group 52" transform="translate(0 11.076)">
    <g id="Group_51" data-name="Group 51" transform="translate(0 0)">
      <path id="Path_34" data-name="Path 34" d="M55.29,137.042a.922.922,0,0,0-.827-.514H.925a.923.923,0,0,0-.733,1.483l26.769,35.077a.92.92,0,0,0,1.466,0L55.2,138.011A.924.924,0,0,0,55.29,137.042Zm-27.6,33.966-24.9-32.633H52.6Z" transform="translate(-0.002 -136.528)" fill="#170c10"/>
    </g>
  </g>
  <g id="Group_54" data-name="Group 54" transform="translate(0.001 11.076)">
    <g id="Group_53" data-name="Group 53">
      <path id="Path_35" data-name="Path 35" d="M28.583,172.25,17.506,137.173a.924.924,0,0,0-.881-.645H.933A.923.923,0,0,0,.2,138.011l26.769,35.077a.921.921,0,0,0,.734.364.9.9,0,0,0,.425-.105A.923.923,0,0,0,28.583,172.25ZM2.8,138.375h13.15l9.282,29.395Z" transform="translate(-0.01 -136.528)" fill="#170c10"/>
    </g>
  </g>
  <g id="Group_56" data-name="Group 56" transform="translate(26.77)">
    <g id="Group_55" data-name="Group 55" transform="translate(0 0)">
      <path id="Path_36" data-name="Path 36" d="M266.732,34.6a.922.922,0,0,0-.8-.463H248.393a.923.923,0,0,0-.653,1.576L258.817,46.79a.92.92,0,0,0,.653.27,1.048,1.048,0,0,0,.119-.007.923.923,0,0,0,.678-.45l6.462-11.077A.925.925,0,0,0,266.732,34.6Zm-7.456,10.037-8.655-8.655h13.7Z" transform="translate(-247.47 -34.137)" fill="#170c10"/>
    </g>
  </g>
  <g id="Group_58" data-name="Group 58" transform="translate(26.771 11.078)">
    <g id="Group_57" data-name="Group 57" transform="translate(0 0)">
      <path id="Path_37" data-name="Path 37" d="M276,137.06a.922.922,0,0,0-.827-.514H259.477a.923.923,0,0,0-.881.645l-11.077,35.077a.923.923,0,0,0,1.614.838L275.9,138.029A.924.924,0,0,0,276,137.06ZM250.87,167.786l9.282-29.395H273.3Z" transform="translate(-247.476 -136.546)" fill="#170c10"/>
    </g>
  </g>
</svg>
