<svg id="icon-socials-facebook" xmlns="http://www.w3.org/2000/svg" width="18.88" height="35" viewBox="0 0 18.88 35">
  <path id="Icon_11_" d="M33.657,29.856H29.32c-.7,0-.92-.263-.92-.92v-5.3c0-.7.263-.92.92-.92h4.337V18.861a9.73,9.73,0,0,1,1.183-4.95,7.268,7.268,0,0,1,3.9-3.242,9.746,9.746,0,0,1,3.373-.569H46.4c.613,0,.876.263.876.876V15.97c0,.613-.263.876-.876.876-1.183,0-2.365,0-3.548.044a1.582,1.582,0,0,0-1.8,1.8c-.044,1.314,0,2.584,0,3.942h5.081c.7,0,.964.263.964.964v5.3c0,.7-.219.92-.964.92H41.06v14.28c0,.745-.219,1.008-1.008,1.008H34.576c-.657,0-.92-.263-.92-.92V29.856Z" transform="translate(-28.4 -10.1)" fill="#fff"/>
</svg>
