<svg id="icon-star-4.5-black" xmlns="http://www.w3.org/2000/svg" width="91.091" height="15.331" viewBox="0 0 91.091 15.331">
  <g id="icon-star-1-black" transform="translate(0 0)">
    <g id="Group_3" data-name="Group 3">
      <path id="Path_15" data-name="Path 15" d="M15.926,15.425l-5.787-.38L7.96,9.569,5.781,15.044,0,15.425l4.434,3.765L2.979,24.9,7.96,21.751,12.941,24.9l-1.455-5.711Z" transform="translate(0 -9.569)" fill="#170c10"/>
    </g>
  </g>
  <g id="star" transform="translate(18.738 0)">
    <g id="Group_3-2" data-name="Group 3" transform="translate(0 0)">
      <path id="Path_15-2" data-name="Path 15" d="M15.926,15.425l-5.787-.38L7.96,9.569,5.781,15.044,0,15.425l4.434,3.765L2.979,24.9,7.96,21.751,12.941,24.9l-1.455-5.711Z" transform="translate(0 -9.569)" fill="#170c10"/>
    </g>
  </g>
  <g id="star-2" data-name="star" transform="translate(37.477 0)">
    <g id="Group_3-3" data-name="Group 3" transform="translate(0 0)">
      <path id="Path_15-3" data-name="Path 15" d="M15.926,15.425l-5.787-.38L7.96,9.569,5.781,15.044,0,15.425l4.434,3.765L2.979,24.9,7.96,21.751,12.941,24.9l-1.455-5.711Z" transform="translate(0 -9.569)" fill="#170c10"/>
    </g>
  </g>
  <g id="star-3" data-name="star" transform="translate(56.215 0)">
    <g id="Group_3-4" data-name="Group 3" transform="translate(0 0)">
      <path id="Path_15-4" data-name="Path 15" d="M15.926,15.425l-5.787-.38L7.96,9.569,5.781,15.044,0,15.425l4.434,3.765L2.979,24.9,7.96,21.751,12.941,24.9l-1.455-5.711Z" transform="translate(0 -9.569)" fill="#170c10"/>
    </g>
  </g>
  <g id="star-half" transform="translate(74.953 0)">
    <path id="Path_38" data-name="Path 38" d="M16.138,18.6l-5.8-.5L8.069,12.75,5.8,18.1,0,18.6H0l4.4,3.814L3.082,28.081l4.987-3.008h0l4.987,3.007-1.319-5.672ZM8.069,23.559v-7.5l1.38,3.257,3.534.3L10.3,21.936l.8,3.454Z" transform="translate(0 -12.75)" fill="#170c10"/>
  </g>
</svg>
