<svg id="icon-socials-instagram" xmlns="http://www.w3.org/2000/svg" width="35" height="35" viewBox="0 0 35 35">
  <path id="Path_43" data-name="Path 43" d="M26.25,0H8.75A8.665,8.665,0,0,0,0,8.75v17.5A8.665,8.665,0,0,0,8.75,35h17.5A8.665,8.665,0,0,0,35,26.25V8.75A8.665,8.665,0,0,0,26.25,0ZM31.5,26.25a5.156,5.156,0,0,1-5.25,5.25H8.75A5.156,5.156,0,0,1,3.5,26.25V8.75A5.156,5.156,0,0,1,8.75,3.5h17.5A5.156,5.156,0,0,1,31.5,8.75Z" fill="#fff"/>
  <path id="Path_44" data-name="Path 44" d="M13.75,5A8.665,8.665,0,0,0,5,13.75a8.665,8.665,0,0,0,8.75,8.75,8.665,8.665,0,0,0,8.75-8.75A8.665,8.665,0,0,0,13.75,5Zm0,14A5.156,5.156,0,0,1,8.5,13.75,5.156,5.156,0,0,1,13.75,8.5,5.156,5.156,0,0,1,19,13.75,5.156,5.156,0,0,1,13.75,19Z" transform="translate(3.75 3.75)" fill="#fff"/>
  <circle id="Ellipse_2" data-name="Ellipse 2" cx="1.84" cy="1.84" r="1.84" transform="translate(24.376 6.899)" fill="#fff"/>
</svg>
