<svg id="icon-cart" xmlns="http://www.w3.org/2000/svg" width="32.558" height="40" viewBox="0 0 32.558 40">
  <path id="Path_26" data-name="Path 26" d="M6.506,8.959a.458.458,0,0,0-.465.452v23.48a.458.458,0,0,0,.465.452H32.552a.458.458,0,0,0,.465-.452V9.411a.458.458,0,0,0-.465-.452ZM3.25,9.411A3.209,3.209,0,0,1,6.506,6.25H32.552a3.209,3.209,0,0,1,3.256,3.161v23.48a3.209,3.209,0,0,1-3.256,3.161H6.506A3.209,3.209,0,0,1,3.25,32.891Z" transform="translate(-3.25 3.948)" fill="#fff"/>
  <path id="Path_27" data-name="Path 27" d="M16.418,4.309a5.609,5.609,0,0,0-5.609,5.609v7.139a1.53,1.53,0,1,1-3.059,0V9.918a8.668,8.668,0,0,1,17.337,0v7.139a1.53,1.53,0,0,1-3.059,0V9.918A5.609,5.609,0,0,0,16.418,4.309Z" transform="translate(-0.139 -1.25)" fill="#fff"/>
</svg>
