<svg id="icon-return" xmlns="http://www.w3.org/2000/svg" width="45" height="45" viewBox="0 0 45 45">
  <path id="Product_Return" d="M47,24.5a22.5,22.5,0,0,1-45,0,1.406,1.406,0,1,1,2.813,0A19.687,19.687,0,1,0,24.5,4.813a19.483,19.483,0,0,0-13.745,5.625h5.307a1.406,1.406,0,0,1,0,2.813H7.625a1.406,1.406,0,0,1-1.406-1.406V3.406a1.406,1.406,0,0,1,2.813,0V8.2A22.264,22.264,0,0,1,24.5,2,22.526,22.526,0,0,1,47,24.5Zm-9.844-5.625V31.531a1.408,1.408,0,0,1-.912,1.317l-11.25,4.219a1.418,1.418,0,0,1-.989,0l-11.25-4.219a1.408,1.408,0,0,1-.912-1.317V18.875a1.408,1.408,0,0,1,.912-1.317l11.25-4.219a1.423,1.423,0,0,1,.989,0l11.25,4.219A1.407,1.407,0,0,1,37.156,18.875Zm-19.9,0L24.5,21.591l7.245-2.716L24.5,16.159Zm-2.6,11.681,8.437,3.164V24.069L14.656,20.9Zm19.687,0V20.9l-8.437,3.164V33.72Z" transform="translate(-2 -2)" fill="#180c11"/>
</svg>
