<svg id="icon-socials-pinterest" xmlns="http://www.w3.org/2000/svg" width="28.437" height="35" viewBox="0 0 28.437 35">
  <g id="Group_71" data-name="Group 71">
    <path id="Path_45" data-name="Path 45" d="M62.7,0C53.105,0,48,6.147,48,12.85c0,3.109,1.737,6.985,4.517,8.214.422.19.652.109.746-.282.083-.3.448-1.73.626-2.406a.619.619,0,0,0-.149-.608,7.971,7.971,0,0,1-1.656-4.837c0-4.675,3.717-9.214,10.041-9.214,5.469,0,9.3,3.553,9.3,8.634,0,5.742-3.039,9.715-6.987,9.715a3.128,3.128,0,0,1-3.3-3.837c.623-2.527,1.846-5.244,1.846-7.066a2.714,2.714,0,0,0-2.809-2.986c-2.225,0-4.03,2.2-4.03,5.161a7.357,7.357,0,0,0,.665,3.148s-2.2,8.89-2.61,10.551c-.691,2.811.094,7.363.162,7.755a.231.231,0,0,0,.42.107,27.562,27.562,0,0,0,3.623-6.823c.271-1,1.385-5.053,1.385-5.053.733,1.323,2.848,2.433,5.1,2.433,6.7,0,11.546-5.891,11.546-13.2C76.417,5.244,70.418,0,62.7,0Z" transform="translate(-48.004)" fill="#fff"/>
  </g>
</svg>
