<svg id="icon-search" xmlns="http://www.w3.org/2000/svg" width="39.999" height="40" viewBox="0 0 39.999 40">
  <g id="_x34__4_">
    <g id="Group_46" data-name="Group 46" transform="translate(0)">
      <path id="Path_31" data-name="Path 31" d="M39.626,37.824,29.3,27.662a16.335,16.335,0,0,0,4.366-11.1A16.7,16.7,0,0,0,16.835,0,16.7,16.7,0,0,0,.006,16.561,16.7,16.7,0,0,0,16.835,33.123a16.925,16.925,0,0,0,10.593-3.7l10.367,10.2a1.309,1.309,0,0,0,1.83,0A1.261,1.261,0,0,0,39.626,37.824ZM16.835,30.575A14.128,14.128,0,0,1,2.6,16.561,14.128,14.128,0,0,1,16.835,2.548a14.128,14.128,0,0,1,14.24,14.013A14.128,14.128,0,0,1,16.835,30.575Z" transform="translate(-0.006)" fill="#fff"/>
    </g>
  </g>
</svg>
