<svg id="icon-mobile-sms" xmlns="http://www.w3.org/2000/svg" width="21.6" height="36" viewBox="0 0 21.6 36">
  <g id="Group_75" data-name="Group 75" transform="translate(9.6 3)">
    <g id="Group_74" data-name="Group 74">
      <path id="Path_47" data-name="Path 47" d="M243.433,42.667h-3.6a.9.9,0,1,0,0,1.8h3.6a.9.9,0,0,0,0-1.8Z" transform="translate(-238.933 -42.667)" fill="#170c10"/>
    </g>
  </g>
  <g id="Group_77" data-name="Group 77">
    <g id="Group_76" data-name="Group 76">
      <path id="Path_48" data-name="Path 48" d="M120.4,0H106a3.6,3.6,0,0,0-3.6,3.6V32.4A3.6,3.6,0,0,0,106,36h14.4a3.6,3.6,0,0,0,3.6-3.6V3.6A3.6,3.6,0,0,0,120.4,0Zm1.8,32.4a1.8,1.8,0,0,1-1.8,1.8H106a1.8,1.8,0,0,1-1.8-1.8V3.6A1.8,1.8,0,0,1,106,1.8h14.4a1.8,1.8,0,0,1,1.8,1.8V32.4Z" transform="translate(-102.4)" fill="#170c10"/>
    </g>
  </g>
  <g id="Group_79" data-name="Group 79" transform="translate(9 29.4)">
    <g id="Group_78" data-name="Group 78">
      <circle id="Ellipse_3" data-name="Ellipse 3" cx="1.8" cy="1.8" r="1.8" fill="#170c10"/>
    </g>
  </g>
  <g id="Group_81" data-name="Group 81" transform="translate(6.6 3)">
    <g id="Group_80" data-name="Group 80">
      <circle id="Ellipse_4" data-name="Ellipse 4" cx="0.9" cy="0.9" r="0.9" fill="#170c10"/>
    </g>
  </g>
</svg>
